<?xml version="1.0" standalone="no"?>
<!DOCTYPE svg PUBLIC "-//W3C//DTD SVG 1.1//EN" "http://www.w3.org/Graphics/SVG/1.1/DTD/svg11.dtd" >
<svg>
<metadata>
Created by FontForge 20090914 at Mon Jul 15 16:46:53 2013
 By www-data
Copyright TerryCavanagh 2012
&#226;&#128;&#156;Bump it up fixed 0&#226;&#128;&#157; is based on &#226;&#128;&#156;Bump IT UP&#226;&#128;&#157; by &#226;&#128;&#156;Aaron Amar&#226;&#128;&#157; (http://fontstruct.com/fontstructors/aaronamar)
</metadata>
<defs>
<font id="Bump-it-up-fixed-0" horiz-adv-x="1128" >
  <font-face 
    font-family="Bump it up fixed 0"
    font-weight="400"
    font-stretch="normal"
    units-per-em="1024"
    panose-1="0 0 4 0 0 0 0 0 0 0"
    ascent="1024"
    descent="0"
    x-height="1024"
    cap-height="1024"
    bbox="-0.000976562 -128 1024 1152"
    underline-thickness="51"
    underline-position="126"
    unicode-range="U+0020-U+201D"
  />
<missing-glyph horiz-adv-x="-23" 
d="M512 145v163h-163v-163h163zM674 335v163h-325v-163h325zM512 525v163h-163v-163h163zM674 715l-0.000976562 162h-162c-45.333 0 -83.666 -15.667 -114.999 -47c-32 -32 -48 -70.333 -48 -115h325zM-0.000976562 0v1024h1024v-1024h-1024z" />
    <glyph glyph-name=".notdef" horiz-adv-x="-23" 
d="M512 145v163h-163v-163h163zM674 335v163h-325v-163h325zM512 525v163h-163v-163h163zM674 715l-0.000976562 162h-162c-45.333 0 -83.666 -15.667 -114.999 -47c-32 -32 -48 -70.333 -48 -115h325zM-0.000976562 0v1024h1024v-1024h-1024z" />
    <glyph glyph-name="space" unicode=" " horiz-adv-x="488" 
 />
    <glyph glyph-name="exclam" unicode="!" horiz-adv-x="360" 
d="M0 0v256h256v-256h-256zM0 384v640h256v-640h-256z" />
    <glyph glyph-name="quotedbl" unicode="&#x22;" horiz-adv-x="744" 
d="M0 640v384h256v-384h-256zM384 640v384h256v-384h-256z" />
    <glyph glyph-name="numbersign" unicode="#" 
d="M640 384v256h-256v-256h256zM128 0v128h-128v256h128v256h-128v256h128v128h256v-128h256v128h256v-128h128v-256h-128v-256h128v-256h-128v-128h-256v128h-256v-128h-256z" />
    <glyph glyph-name="dollar" unicode="$" 
d="M384 -128v128h-384v256h768v128h-768v512c-0 35.333 12.333 65.333 37 90c24.667 25.333 55 38 91 38h256v128h256v-128h384v-256h-768v-128h768v-512c0 -36 -12.667 -66.333 -38 -91c-24.667 -24.667 -54.667 -37 -90 -37h-256v-128h-256z" />
    <glyph glyph-name="percent" unicode="%" 
d="M768 0v128c0 35.333 12.333 65.333 37 90c24.667 25.333 55 38 91 38h128v-128c0 -36 -12.667 -66.333 -38 -91c-24.667 -24.667 -54.667 -37 -90 -37h-128zM0 768v128c-0 35.333 12.333 65.333 37 90c24.667 25.333 55 38 91 38h128v-128c0 -36 -12.667 -66.333 -38 -91
c-24.667 -24.667 -54.667 -37 -90 -37h-128zM0 0v512c-0 35.333 12.333 65.333 37 90c24.667 25.333 55 38 91 38h640v384h256v-512c0 -36 -12.667 -66.333 -38 -91c-24.667 -24.667 -54.667 -37 -90 -37h-640v-384h-256z" />
    <glyph glyph-name="ampersand" unicode="&#x26;" 
d="M768 -128v128h-768v384c-0 35.333 12.333 65.333 37 90c24.667 25.333 55 38 91 38c-36 0 -66.333 12.333 -91 37s-37 55 -37 91v384h768v128h256v-384h-768v-128h512v-256h-512v-128h768v-384h-256z" />
    <glyph glyph-name="quotesingle" unicode="'" horiz-adv-x="360" 
d="M0 640v384h256v-384h-256z" />
    <glyph glyph-name="parenleft" unicode="(" horiz-adv-x="488" 
d="M128 0c-36 0 -66.333 12.333 -91 37s-37 55 -37 91v768c-0 35.333 12.333 65.333 37 90c24.667 25.333 55 38 91 38h256v-256h-128v-512h128v-256h-256z" />
    <glyph glyph-name="parenright" unicode=")" horiz-adv-x="488" 
d="M0 0v256h128v512h-128v256h256c35.333 0 65.333 -12.667 90 -38c25.333 -24.667 38 -54.667 38 -90v-768c0 -36 -12.667 -66.333 -38 -91c-24.667 -24.667 -54.667 -37 -90 -37h-256z" />
    <glyph glyph-name="asterisk" unicode="*" horiz-adv-x="488" 
d="M128 640v128h-128v128h128c0 35.333 12.333 65.333 37 90c24.667 25.333 55 38 91 38v-128h128v-128h-128c0 -36 -12.667 -66.333 -38 -91c-24.667 -24.667 -54.667 -37 -90 -37v0z" />
    <glyph glyph-name="plus" unicode="+" horiz-adv-x="872" 
d="M256 128v256h-256v256h256v256h256v-256h256v-256h-256v-256h-256z" />
    <glyph glyph-name="comma" unicode="," horiz-adv-x="360" 
d="M128 -128c-36 0 -66.333 12.667 -91 38c-24.667 24.667 -37 54.667 -37 90v256h256v-384h-128z" />
    <glyph glyph-name="hyphen" unicode="-" horiz-adv-x="872" 
d="M0 384v256h768v-256h-768z" />
    <glyph glyph-name="period" unicode="." horiz-adv-x="360" 
d="M0 0v256h256v-256h-256z" />
    <glyph glyph-name="slash" unicode="/" horiz-adv-x="744" 
d="M0 0v512c-0 35.333 12.333 65.333 37 90c24.667 25.333 55 38 91 38h256v384h256v-512c0 -36 -12.667 -66.333 -38 -91c-24.667 -24.667 -54.667 -37 -90 -37h-256v-384h-256z" />
    <glyph glyph-name="zero" unicode="0" 
d="M768 256v512h-512v-512h512zM0 0v896c-0 35.333 12.333 65.333 37 90c24.667 25.333 55 38 91 38h896v-896c0 -36 -12.667 -66.333 -38 -91c-24.667 -24.667 -54.667 -37 -90 -37h-896z" />
    <glyph glyph-name="one" unicode="1" 
d="M0 0v256h384v512h-384v256h512c35.333 0 65.333 -12.667 90 -38c25.333 -24.667 38 -54.667 38 -90v-640h384v-256h-1024z" />
    <glyph glyph-name="two" unicode="2" 
d="M0 0v512c-0 35.333 12.333 65.333 37 90c24.667 25.333 55 38 91 38h640v128h-768v256h1024v-512c0 -36 -12.667 -66.333 -38 -91c-24.667 -24.667 -54.667 -37 -90 -37h-640v-128h768v-256h-1024z" />
    <glyph glyph-name="three" unicode="3" 
d="M0 0v256h768v128h-768v256h768v128h-768v256h896c35.333 0 65.333 -12.667 90 -38c25.333 -24.667 38 -54.667 38 -90v-768c0 -36 -12.667 -66.333 -38 -91c-24.667 -24.667 -54.667 -37 -90 -37h-896z" />
    <glyph glyph-name="four" unicode="4" 
d="M768 0v256h-640c-36 0 -66.333 12.333 -91 37s-37 55 -37 91v640h256v-512h512v512h256v-1024h-256z" />
    <glyph glyph-name="five" unicode="5" 
d="M0 0v256h768v128h-640c-36 0 -66.333 12.333 -91 37s-37 55 -37 91v512h1024v-256h-768v-128h640c35.333 0 65.333 -12.667 90 -38c25.333 -24.667 38 -54.667 38 -90v-512h-1024z" />
    <glyph glyph-name="six" unicode="6" 
d="M768 256v128h-512v-128h512zM0 0v1024h1024v-256h-768v-128h640c35.333 0 65.333 -12.667 90 -38c25.333 -24.667 38 -54.667 38 -90v-512h-1024z" />
    <glyph glyph-name="seven" unicode="7" 
d="M768 0v768h-768v256h896c35.333 0 65.333 -12.667 90 -38c25.333 -24.667 38 -54.667 38 -90v-896h-256z" />
    <glyph glyph-name="eight" unicode="8" 
d="M768 256v128h-512v-128h512zM768 640v128h-512v-128h512zM0 0v896c-0 35.333 12.333 65.333 37 90c24.667 25.333 55 38 91 38h896v-896c0 -36 -12.667 -66.333 -38 -91c-24.667 -24.667 -54.667 -37 -90 -37h-896z" />
    <glyph glyph-name="nine" unicode="9" 
d="M768 640v128h-512v-128h512zM0 0v256h768v128h-640c-36 0 -66.333 12.333 -91 37s-37 55 -37 91v512h1024v-1024h-1024z" />
    <glyph glyph-name="colon" unicode=":" horiz-adv-x="360" 
d="M0 0v256h256v-128c0 -36 -12.667 -66.333 -38 -91c-24.667 -24.667 -54.667 -37 -90 -37h-128zM0 384v128c-0 35.333 12.333 65.333 37 90c24.667 25.333 55 38 91 38h128v-256h-256z" />
    <glyph glyph-name="semicolon" unicode=";" horiz-adv-x="360" 
d="M128 -128c-36 0 -66.333 12.667 -91 38c-24.667 24.667 -37 54.667 -37 90v256h256v-384h-128zM0 384v256h128c35.333 0 65.333 -12.667 90 -38c25.333 -24.667 38 -54.667 38 -90v-128h-256z" />
    <glyph glyph-name="equal" unicode="=" 
d="M0 128v256h1024v-256h-1024zM0 512v256h1024v-256h-1024z" />
    <glyph glyph-name="question" unicode="?" 
d="M0 0v256h256v-256h-256zM0 384v256h768v128h-768v256h1024v-512c0 -36 -12.667 -66.333 -38 -91c-24.667 -24.667 -54.667 -37 -90 -37h-896z" />
    <glyph glyph-name="at" unicode="@" 
d="M576 448v128h-128v-128h128zM128 0c-36 0 -66.333 12.333 -91 37s-37 55 -37 91v896h896c35.333 0 65.333 -12.667 90 -38c25.333 -24.667 38 -54.667 38 -90v-640h-768v384c0 35.333 12.333 65.333 37 90c24.667 25.333 55 38 91 38h384v-384h128v512h-768v-768h896
v-128h-896z" />
    <glyph glyph-name="A" unicode="A" 
d="M768 512v256h-512v-256h512zM0 0v896c-0 35.333 12.333 65.333 37 90c24.667 25.333 55 38 91 38h896v-1024h-256v256h-512v-256h-256z" />
    <glyph glyph-name="B" unicode="B" 
d="M768 256v128h-512v-128h512zM768 640v128h-512v-128h512zM0 0v1024h1024v-384c0 -36 -12.667 -66.333 -38 -91c-24.667 -24.667 -54.667 -37 -90 -37c35.333 0 65.333 -12.667 90 -38c25.333 -24.667 38 -54.667 38 -90v-384h-1024z" />
    <glyph glyph-name="C" unicode="C" 
d="M128 0c-36 0 -66.333 12.333 -91 37s-37 55 -37 91v896h1024v-256h-768v-512h768v-256h-896z" />
    <glyph glyph-name="D" unicode="D" 
d="M768 256v512h-512v-512h512zM0 0v1024h896c35.333 0 65.333 -12.667 90 -38c25.333 -24.667 38 -54.667 38 -90v-896h-1024z" />
    <glyph glyph-name="E" unicode="E" 
d="M128 0c-36 0 -66.333 12.333 -91 37s-37 55 -37 91v896h1024v-256h-768v-128h768v-256h-768v-128h768v-256h-896z" />
    <glyph glyph-name="F" unicode="F" 
d="M0 0v896c-0 35.333 12.333 65.333 37 90c24.667 25.333 55 38 91 38h896v-256h-768v-128h768v-256h-768v-384h-256z" />
    <glyph glyph-name="G" unicode="G" 
d="M0 0v1024h1024v-256h-768v-512h512v384h256v-512c0 -36 -12.667 -66.333 -38 -91c-24.667 -24.667 -54.667 -37 -90 -37h-896z" />
    <glyph glyph-name="H" unicode="H" 
d="M0 0v1024h256v-384h512v384h256v-1024h-256v384h-512v-384h-256z" />
    <glyph glyph-name="I" unicode="I" 
d="M0 0v256h384v512h-384v256h1024v-256h-384v-512h384v-256h-1024z" />
    <glyph glyph-name="J" unicode="J" 
d="M0 0v384h256v-128h512v768h256v-896c0 -36 -12.667 -66.333 -38 -91c-24.667 -24.667 -54.667 -37 -90 -37h-896z" />
    <glyph glyph-name="K" unicode="K" 
d="M0 0v1024h256v-384h512v384h256v-384c0 -36 -12.667 -66.333 -38 -91c-24.667 -24.667 -54.667 -37 -90 -37c35.333 0 65.333 -12.667 90 -38c25.333 -24.667 38 -54.667 38 -90v-384h-256v384h-512v-384h-256z" />
    <glyph glyph-name="L" unicode="L" 
d="M128 0c-36 0 -66.333 12.333 -91 37s-37 55 -37 91v896h256v-768h768v-256h-896z" />
    <glyph glyph-name="M" unicode="M" 
d="M0 0v1024h384c35.333 0 65.333 -12.667 90 -38c25.333 -24.667 38 -54.667 38 -90c0 35.333 12.333 65.333 37 90c24.667 25.333 55 38 91 38h384v-1024h-256v768h-128v-768h-256v768h-128v-768h-256z" />
    <glyph glyph-name="N" unicode="N" 
d="M0 0v1024h896c35.333 0 65.333 -12.667 90 -38c25.333 -24.667 38 -54.667 38 -90v-896h-256v768h-512v-768h-256z" />
    <glyph glyph-name="O" unicode="O" 
d="M768 256v512h-512v-512h512zM0 0v896c-0 35.333 12.333 65.333 37 90c24.667 25.333 55 38 91 38h896v-896c0 -36 -12.667 -66.333 -38 -91c-24.667 -24.667 -54.667 -37 -90 -37h-896z" />
    <glyph glyph-name="P" unicode="P" 
d="M768 512v256h-512v-256h512zM0 0v1024h1024v-640c0 -36 -12.667 -66.333 -38 -91c-24.667 -24.667 -54.667 -37 -90 -37h-640v-256h-256z" />
    <glyph glyph-name="Q" unicode="Q" 
d="M768 256v512h-512v-512h128v128h256v-128h128zM0 0v896c-0 35.333 12.333 65.333 37 90c24.667 25.333 55 38 91 38h896v-896c0 -36 -12.667 -66.333 -38 -91c-24.667 -24.667 -54.667 -37 -90 -37h-896z" />
    <glyph glyph-name="R" unicode="R" 
d="M768 512v256h-512v-256h512zM0 0v1024h896c35.333 0 65.333 -12.667 90 -38c25.333 -24.667 38 -54.667 38 -90v-384c0 -36 -12.667 -66.333 -38 -91c-24.667 -24.667 -54.667 -37 -90 -37c35.333 0 65.333 -12.667 90 -38c25.333 -24.667 38 -54.667 38 -90v-256h-256
v256h-512v-256h-256z" />
    <glyph glyph-name="S" unicode="S" 
d="M0 0v256h768v128h-768v512c-0 35.333 12.333 65.333 37 90c24.667 25.333 55 38 91 38h896v-256h-768v-128h768v-512c0 -36 -12.667 -66.333 -38 -91c-24.667 -24.667 -54.667 -37 -90 -37h-896z" />
    <glyph glyph-name="T" unicode="T" 
d="M384 0v768h-384v256h1024v-256h-384v-768h-256z" />
    <glyph glyph-name="U" unicode="U" 
d="M128 0c-36 0 -66.333 12.333 -91 37s-37 55 -37 91v896h256v-768h512v768h256v-1024h-896z" />
    <glyph glyph-name="V" unicode="V" 
d="M0 0v1024h256v-768h512v768h256v-896c0 -36 -12.667 -66.333 -38 -91c-24.667 -24.667 -54.667 -37 -90 -37h-896z" />
    <glyph glyph-name="W" unicode="W" 
d="M128 0c-36 0 -66.333 12.333 -91 37s-37 55 -37 91v896h256v-768h128v768h256v-768h128v768h256v-1024h-896z" />
    <glyph glyph-name="X" unicode="X" 
d="M0 0v384c-0 35.333 12.333 65.333 37 90c24.667 25.333 55 38 91 38c-36 0 -66.333 12.333 -91 37s-37 55 -37 91v384h256v-384h512v384h256v-384c0 -36 -12.667 -66.333 -38 -91c-24.667 -24.667 -54.667 -37 -90 -37c35.333 0 65.333 -12.667 90 -38
c25.333 -24.667 38 -54.667 38 -90v-384h-256v384h-512v-384h-256z" />
    <glyph glyph-name="Y" unicode="Y" 
d="M384 0v256h-256c-36 0 -66.333 12.333 -91 37s-37 55 -37 91v640h256v-512h512v512h256v-640c0 -36 -12.667 -66.333 -38 -91c-24.667 -24.667 -54.667 -37 -90 -37h-256v-256h-256z" />
    <glyph glyph-name="Z" unicode="Z" 
d="M128 0c-36 0 -66.333 12.333 -91 37s-37 55 -37 91v512h768v128h-768v256h896c35.333 0 65.333 -12.667 90 -38c25.333 -24.667 38 -54.667 38 -90v-512h-768v-128h768v-256h-896z" />
    <glyph glyph-name="underscore" unicode="_" 
d="M0 -128v64h1024v-64h-1024z" />
    <glyph glyph-name="a" unicode="a" 
d="M768 256v128h-512v-128h512zM0 0v512c-0 35.333 12.333 65.333 37 90c24.667 25.333 55 38 91 38h640v128h-768v256h1024v-1024h-1024z" />
    <glyph glyph-name="b" unicode="b" 
d="M768 256v384h-512v-384h512zM0 0v1024h256v-128h640c35.333 0 65.333 -12.667 90 -38c25.333 -24.667 38 -54.667 38 -90v-768h-1024z" />
    <glyph glyph-name="c" unicode="c" 
d="M128 0c-36 0 -66.333 12.333 -91 37s-37 55 -37 91v896h1024v-256h-768v-512h768v-256h-896z" />
    <glyph glyph-name="d" unicode="d" 
d="M768 256v384h-512v-384h512zM0 0v768c-0 35.333 12.333 65.333 37 90c24.667 25.333 55 38 91 38h640v128h256v-1024h-1024z" />
    <glyph glyph-name="e" unicode="e" 
d="M768 640v128h-512v-128h512zM0 0v1024h1024v-512c0 -36 -12.667 -66.333 -38 -91c-24.667 -24.667 -54.667 -37 -90 -37h-640v-128h768v-256h-1024z" />
    <glyph glyph-name="f" unicode="f" 
d="M0 0v896c-0 35.333 12.333 65.333 37 90c24.667 25.333 55 38 91 38h896v-256h-768v-256h768v-256h-768v-256h-256z" />
    <glyph glyph-name="g" unicode="g" 
d="M768 640v128h-512v-128h512zM0 0v256h768v128h-768v640h1024v-896c0 -36 -12.667 -66.333 -38 -91c-24.667 -24.667 -54.667 -37 -90 -37h-896z" />
    <glyph glyph-name="h" unicode="h" 
d="M0 0v1024h256v-128h640c35.333 0 65.333 -12.667 90 -38c25.333 -24.667 38 -54.667 38 -90v-768h-256v640h-512v-640h-256z" />
    <glyph glyph-name="i" unicode="i" 
d="M0 0v256h384v512h-384v256h1024v-256h-384v-512h384v-256h-1024z" />
    <glyph glyph-name="j" unicode="j" 
d="M0 0v256h768v768h256v-896c0 -36 -12.667 -66.333 -38 -91c-24.667 -24.667 -54.667 -37 -90 -37h-896z" />
    <glyph glyph-name="k" unicode="k" 
d="M0 0v1024h256v-384h512v256h256v-256c0 -36 -12.667 -66.333 -38 -91c-24.667 -24.667 -54.667 -37 -90 -37c35.333 0 65.333 -12.667 90 -38c25.333 -24.667 38 -54.667 38 -90v-384h-256v384h-512v-384h-256z" />
    <glyph glyph-name="l" unicode="l" 
d="M128 0c-36 0 -66.333 12.333 -91 37s-37 55 -37 91v896h256v-768h768v-256h-896z" />
    <glyph glyph-name="m" unicode="m" 
d="M0 0v1024h896c35.333 0 65.333 -12.667 90 -38c25.333 -24.667 38 -54.667 38 -90v-896h-256v768h-128v-768h-256v768h-128v-768h-256z" />
    <glyph glyph-name="n" unicode="n" 
d="M0 0v1024h896c35.333 0 65.333 -12.667 90 -38c25.333 -24.667 38 -54.667 38 -90v-896h-256v768h-512v-768h-256z" />
    <glyph glyph-name="o" unicode="o" 
d="M768 256v512h-512v-512h512zM0 0v896c-0 35.333 12.333 65.333 37 90c24.667 25.333 55 38 91 38h896v-896c0 -36 -12.667 -66.333 -38 -91c-24.667 -24.667 -54.667 -37 -90 -37h-896z" />
    <glyph glyph-name="p" unicode="p" 
d="M768 384v384h-512v-384h512zM0 0v1024h1024v-768c0 -36 -12.667 -66.333 -38 -91c-24.667 -24.667 -54.667 -37 -90 -37h-640v-128h-256z" />
    <glyph glyph-name="q" unicode="q" 
d="M768 384v384h-512v-384h512zM768 0v128h-640c-36 0 -66.333 12.333 -91 37s-37 55 -37 91v768h1024v-1024h-256z" />
    <glyph glyph-name="r" unicode="r" 
d="M0 0v896c-0 35.333 12.333 65.333 37 90c24.667 25.333 55 38 91 38h896v-384h-256v128h-512v-768h-256z" />
    <glyph glyph-name="s" unicode="s" 
d="M0 0v256h768v128h-768v512c-0 35.333 12.333 65.333 37 90c24.667 25.333 55 38 91 38h896v-256h-768v-128h768v-512c0 -36 -12.667 -66.333 -38 -91c-24.667 -24.667 -54.667 -37 -90 -37h-896z" />
    <glyph glyph-name="t" unicode="t" 
d="M128 0c-36 0 -66.333 12.333 -91 37s-37 55 -37 91v896h256v-128h768v-256h-768v-384h768v-256h-896z" />
    <glyph glyph-name="u" unicode="u" 
d="M128 0c-36 0 -66.333 12.333 -91 37s-37 55 -37 91v896h256v-768h512v768h256v-1024h-896z" />
    <glyph glyph-name="v" unicode="v" 
d="M0 0v896h256v-640h512v768h256v-896c0 -36 -12.667 -66.333 -38 -91c-24.667 -24.667 -54.667 -37 -90 -37h-896z" />
    <glyph glyph-name="w" unicode="w" 
d="M128 0c-36 0 -66.333 12.333 -91 37s-37 55 -37 91v896h256v-768h128v768h256v-768h128v768h256v-1024h-896z" />
    <glyph glyph-name="x" unicode="x" 
d="M0 0v256c-0 35.333 12.333 65.333 37 90c24.667 25.333 55 38 91 38c-36 0 -66.333 12.333 -91 37s-37 55 -37 91v512h256v-512h512v512h256v-512c0 -36 -12.667 -66.333 -38 -91c-24.667 -24.667 -54.667 -37 -90 -37c35.333 0 65.333 -12.667 90 -38
c25.333 -24.667 38 -54.667 38 -90v-256h-256v256h-512v-256h-256z" />
    <glyph glyph-name="y" unicode="y" 
d="M0 0v256h768v128h-768v640h256v-384h512v384h256v-896c0 -36 -12.667 -66.333 -38 -91c-24.667 -24.667 -54.667 -37 -90 -37h-896z" />
    <glyph glyph-name="z" unicode="z" 
d="M128 0c-36 0 -66.333 12.333 -91 37s-37 55 -37 91v512h768v128h-768v256h896c35.333 0 65.333 -12.667 90 -38c25.333 -24.667 38 -54.667 38 -90v-512h-768v-128h768v-256h-896z" />
    <glyph glyph-name="bar" unicode="|" horiz-adv-x="360" 
d="M0 -128v1280h256v-1280h-256z" />
    <glyph glyph-name="quoteleft" unicode="&#x2018;" horiz-adv-x="360" 
d="M0 768v128c-0 35.333 12.333 65.333 37 90c24.667 25.333 55 38 91 38h128v-256h-256z" />
    <glyph glyph-name="quoteright" unicode="&#x2019;" horiz-adv-x="360" 
d="M0 768v256h256v-128c0 -36 -12.667 -66.333 -38 -91c-24.667 -24.667 -54.667 -37 -90 -37h-128z" />
    <glyph glyph-name="quotedblleft" unicode="&#x201c;" horiz-adv-x="744" 
d="M0 768v128c-0 35.333 12.333 65.333 37 90c24.667 25.333 55 38 91 38h128v-256h-256zM384 768v128c0 35.333 12.333 65.333 37 90c24.667 25.333 55 38 91 38h128v-256h-256z" />
    <glyph glyph-name="quotedblright" unicode="&#x201d;" horiz-adv-x="744" 
d="M0 768v256h256v-128c0 -36 -12.667 -66.333 -38 -91c-24.667 -24.667 -54.667 -37 -90 -37h-128zM384 768v256h256v-128c0 -36 -12.667 -66.333 -38 -91c-24.667 -24.667 -54.667 -37 -90 -37h-128z" />
    <glyph glyph-name="glyph1" horiz-adv-x="-23" 
 />
    <glyph glyph-name="glyph2" horiz-adv-x="512" 
 />
  </font>
</defs>
</svg>
